<?xml version="1.0" encoding="utf-8" standalone="no"?><!DOCTYPE svg PUBLIC "-//W3C//DTD SVG 1.1//EN" "http://www.w3.org/Graphics/SVG/1.1/DTD/svg11.dtd">
<svg preserveAspectRatio="xMinYMin meet" width="100%" height="100%" viewBox="29.000 14.775 252.500 182.750"  version="1.1" xmlns="http://www.w3.org/2000/svg" xmlns:xlink="http://www.w3.org/1999/xlink">
  <desc>Matlab/PLOT2SVG figure: geod-spheroidal-x (2013-08-03T11:37-0400)</desc>
  <g id="topgroup">
  <rect x="29.000" y="14.775" width="252.500" height="182.750" fill="#ffffff" stroke="none" />
  <g id ="ID000000">
  <clipPath id="ID000001">
    <rect x="39.000" y="24.775" width="232.500" height="162.750"/>
  </clipPath>
    <g>
<g id="ID000002" clip-path="url(#ID000001)" >
      <polyline fill="none" stroke="#000000" stroke-width="0.3pt" stroke-dasharray="none" points="39.000,137.361 39.071,138.749 39.283,140.135 39.637,141.517 40.131,142.895 40.766,144.265 41.540,145.628 42.453,146.980 43.503,148.321 44.690,149.648 46.011,150.960 47.465,152.256 49.050,153.533 50.765,154.791 52.607,156.027 54.575,157.241 56.664,158.431 58.874,159.595 61.202,160.731 63.644,161.840 66.197,162.918 68.859,163.966 71.627,164.981 74.496,165.962 77.464,166.909 80.526,167.819 83.679,168.692 86.920,169.528 90.244,170.324 93.647,171.080 97.125,171.794 100.674,172.467 104.289,173.097 107.967,173.684 111.702,174.226 115.490,174.723 119.327,175.175 123.207,175.581 127.127,175.940 131.080,176.252 135.063,176.517 139.071,176.734 143.099,176.903 147.141,177.024 151.193,177.097 155.250,177.121 159.307,177.097 163.359,177.024 167.401,176.903 171.429,176.734 175.437,176.517 179.420,176.252 183.373,175.940 187.293,175.581 191.173,175.175 195.010,174.723 198.798,174.226 202.533,173.684 206.211,173.097 209.826,172.467 213.375,171.794 216.853,171.080 220.256,170.324 223.580,169.528 226.821,168.692 229.974,167.819 233.036,166.909 236.004,165.962 238.873,164.981 241.641,163.966 244.303,162.918 246.856,161.840 249.298,160.731 251.626,159.595 253.836,158.431 255.925,157.241 257.893,156.027 259.735,154.791 261.450,153.533 263.035,152.256 264.489,150.960 265.810,149.648 266.997,148.321 268.047,146.980 268.960,145.628 269.734,144.265 270.369,142.895 270.863,141.517 271.217,140.135 271.429,138.749 271.500,137.361 "/>
<g>
</g>
</g>
<g id="ID000003" clip-path="url(#ID000001)" >
      <polyline fill="none" stroke="#000000" stroke-width="0.3pt" stroke-dasharray="none" points="39.000,137.361 39.065,133.653 39.259,129.949 39.582,126.251 40.035,122.563 40.617,118.889 41.328,115.231 42.168,111.594 43.136,107.981 44.232,104.395 45.456,100.840 46.808,97.320 48.286,93.838 49.890,90.398 51.619,87.004 53.473,83.659 55.451,80.369 57.550,77.136 59.771,73.964 62.111,70.858 64.570,67.823 67.145,64.861 69.834,61.977 72.635,59.176 75.546,56.462 78.564,53.838 81.686,51.310 84.909,48.881 88.231,46.555 91.646,44.337 95.152,42.231 98.745,40.240 102.419,38.367 106.171,36.618 109.995,34.995 113.887,33.501 117.841,32.140 121.851,30.913 125.912,29.825 130.019,28.877 134.164,28.072 138.342,27.410 142.546,26.894 146.769,26.524 151.006,26.302 155.250,26.228 159.494,26.302 163.731,26.524 167.954,26.894 172.158,27.410 176.336,28.072 180.481,28.877 184.588,29.825 188.649,30.913 192.659,32.140 196.613,33.501 200.505,34.995 204.329,36.618 208.081,38.367 211.755,40.240 215.348,42.231 218.854,44.337 222.269,46.555 225.591,48.881 228.814,51.310 231.936,53.838 234.954,56.462 237.865,59.176 240.666,61.977 243.355,64.861 245.930,67.823 248.389,70.858 250.729,73.964 252.950,77.136 255.049,80.369 257.027,83.659 258.881,87.004 260.610,90.398 262.214,93.838 263.692,97.320 265.044,100.840 266.268,104.395 267.364,107.981 268.332,111.594 269.172,115.231 269.883,118.889 270.465,122.563 270.918,126.251 271.241,129.949 271.435,133.653 271.500,137.361 271.435,141.069 271.241,144.774 270.918,148.472 270.465,152.160 269.883,155.834 269.172,159.491 268.332,163.128 267.364,166.742 266.268,170.327 265.044,173.882 263.692,177.403 262.214,180.885 260.610,184.325 258.881,187.719 257.027,191.063 255.049,194.354 252.950,197.587 250.729,200.758 248.389,203.864 245.930,206.900 243.355,209.862 240.666,212.745 237.865,215.546 234.954,218.261 231.936,220.884 228.814,223.412 225.591,225.841 222.269,228.167 218.854,230.385 215.348,232.492 211.755,234.483 208.081,236.355 204.329,238.104 200.505,239.728 196.613,241.222 192.659,242.583 188.649,243.809 184.588,244.897 180.481,245.845 176.336,246.651 172.158,247.313 167.954,247.829 163.731,248.198 159.494,248.420 155.250,248.494 151.006,248.420 146.769,248.198 142.546,247.829 138.342,247.313 134.164,246.651 130.019,245.845 125.912,244.897 121.851,243.809 117.841,242.583 113.887,241.222 109.995,239.728 106.171,238.104 102.419,236.355 98.745,234.483 95.152,232.492 91.646,230.385 88.231,228.167 84.909,225.841 81.686,223.412 78.564,220.884 75.546,218.261 72.635,215.546 69.834,212.745 67.145,209.862 64.570,206.900 62.111,203.864 59.771,200.758 57.550,197.587 55.451,194.354 53.473,191.063 51.619,187.719 49.890,184.325 48.286,180.885 46.808,177.403 45.456,173.882 44.232,170.327 43.136,166.742 42.168,163.128 41.328,159.491 40.617,155.834 40.035,152.160 39.582,148.472 39.259,144.774 39.065,141.069 39.000,137.361 "/>
<g>
</g>
</g>
<g id="ID000004" clip-path="url(#ID000001)" >
      <polyline fill="none" stroke="#b31b1b" stroke-width="1.0pt" stroke-dasharray="none" points="134.390,135.364 137.706,133.386 141.044,131.417 144.401,129.458 147.772,127.511 151.155,125.580 154.545,123.667 157.938,121.773 161.330,119.901 164.719,118.054 168.099,116.233 171.467,114.441 174.820,112.681 178.153,110.953 181.462,109.261 184.745,107.606 187.997,105.990 191.214,104.415 194.393,102.884 197.530,101.397 200.622,99.957 "/>
<g>
</g>
</g>
<g id="ID000005" >
      <polygon fill="#b31b1b" fill-opacity="1.00" stroke="#b31b1b" stroke-width="0.5pt" stroke-opacity="1.00" stroke-dasharray="none" points="181.462,109.261 170.072,110.688 174.163,112.993 174.163,112.993 174.163,112.993 174.163,112.993 174.163,112.993 174.163,112.993 174.163,112.993 172.386,118.298 181.462,109.261 "/>
</g>
<g id="ID000006" >
  <g transform="translate(164.719,129.854)">
    <g transform="rotate(-0.0)">
      <text x="0.000" y="0.000" font-family="Helvetica" text-anchor="start" font-size="10pt" fill="#000000" ><tspan></tspan><tspan font-style="italic">s</tspan><tspan font-style="normal" font-weight="normal"></tspan><tspan dy="4.0pt" font-size="7pt">12</tspan><tspan dy="-4.0pt" font-size="10pt"></tspan></text>
    </g>
  </g>
</g>
<g id="ID000007" >
  <g transform="translate(137.878,118.914)">
    <g transform="rotate(-0.0)">
      <text x="0.000" y="0.000" font-family="Helvetica" text-anchor="start" font-size="10pt" fill="#000000" ><tspan>&#945;</tspan><tspan></tspan><tspan dy="4.0pt" font-size="7pt">1</tspan><tspan dy="-4.0pt" font-size="10pt"></tspan></text>
    </g>
  </g>
</g>
<g id="ID000008" >
  <g transform="translate(198.297,88.157)">
    <g transform="rotate(-0.0)">
      <text x="0.000" y="0.000" font-family="Helvetica" text-anchor="start" font-size="10pt" fill="#000000" ><tspan>&#945;</tspan><tspan></tspan><tspan dy="4.0pt" font-size="7pt">2</tspan><tspan dy="-4.0pt" font-size="10pt"></tspan></text>
    </g>
  </g>
</g>
<g id="ID000009" >
  <g transform="translate(135.553,146.001)">
    <g transform="rotate(-0.0)">
      <text x="0.000" y="0.000" font-family="Helvetica" text-anchor="start" font-size="10pt" fill="#000000" >A</text>
    </g>
  </g>
</g>
<g id="ID000010" >
  <g transform="translate(205.272,109.432)">
    <g transform="rotate(-0.0)">
      <text x="0.000" y="0.000" font-family="Helvetica" text-anchor="start" font-size="10pt" fill="#000000" >B</text>
    </g>
  </g>
</g>
<g id="ID000011" clip-path="url(#ID000001)" >
      <polyline fill="none" stroke="#000000" stroke-width="0.5pt" stroke-dasharray="none" points="56.285,193.095 56.649,192.444 57.122,191.727 57.702,190.946 58.390,190.102 59.184,189.197 60.084,188.230 61.088,187.204 62.196,186.120 63.407,184.979 64.720,183.783 66.132,182.533 67.643,181.231 69.251,179.878 70.955,178.476 72.752,177.027 74.640,175.533 76.619,173.995 78.684,172.416 80.836,170.797 83.070,169.140 85.385,167.448 87.778,165.722 90.247,163.965 92.789,162.179 95.401,160.365 98.081,158.527 100.825,156.666 103.631,154.785 106.496,152.885 109.417,150.970 112.389,149.042 115.411,147.102 118.479,145.154 121.590,143.199 124.740,141.241 127.925,139.280 131.143,137.320 134.390,135.364 "/>
      <polyline fill="none" stroke="#000000" stroke-width="0.5pt" stroke-dasharray="none" points="200.622,99.957 203.626,98.584 206.578,97.259 209.477,95.984 212.317,94.762 215.097,93.592 217.814,92.476 220.463,91.417 223.043,90.414 225.550,89.469 227.982,88.583 230.336,87.758 232.608,86.993 234.798,86.290 236.901,85.650 238.916,85.072 240.841,84.559 242.672,84.110 244.410,83.726 246.050,83.407 247.591,83.153 249.032,82.965 250.371,82.843 251.607,82.787 252.737,82.797 253.761,82.872 254.677,83.013 255.485,83.219 256.183,83.490 256.770,83.825 257.246,84.225 257.610,84.688 "/>
<g>
</g>
</g>
<g id="ID000012" clip-path="url(#ID000001)" >
      <polyline fill="none" stroke="#b31b1b" stroke-width="1.0pt" stroke-dasharray="none" points="134.390,135.364 134.684,131.586 135.002,127.816 135.344,124.057 135.708,120.313 136.096,116.589 136.505,112.889 136.937,109.217 137.390,105.579 137.863,101.977 138.357,98.416 138.870,94.901 139.402,91.434 139.953,88.022 140.522,84.666 141.107,81.372 141.710,78.143 142.327,74.983 142.960,71.895 143.607,68.883 144.268,65.951 144.941,63.102 145.627,60.339 146.323,57.666 147.030,55.085 147.747,52.600 148.472,50.213 149.205,47.928 149.945,45.747 150.692,43.672 151.443,41.706 152.199,39.851 152.959,38.109 153.721,36.483 154.485,34.974 155.250,33.584 "/>
<g>
</g>
</g>
<g id="ID000013" clip-path="url(#ID000001)" >
      <polyline fill="none" stroke="#b31b1b" stroke-width="1.0pt" stroke-dasharray="none" points="200.622,99.957 199.350,96.420 198.025,92.931 196.648,89.496 195.222,86.119 193.748,82.803 192.228,79.552 190.663,76.371 189.055,73.263 187.407,70.232 185.721,67.281 183.998,64.415 182.240,61.636 180.450,58.949 178.630,56.355 176.781,53.859 174.907,51.462 173.009,49.169 171.090,46.982 169.152,44.904 167.197,42.936 165.228,41.082 163.247,39.343 161.256,37.722 159.258,36.221 157.255,34.841 155.250,33.584 "/>
<g>
</g>
</g>
<g id="ID000014" clip-path="url(#ID000001)" >
      <polyline fill="none" stroke="#000000" stroke-width="0.3pt" stroke-dasharray="none" points="100.424,228.069 98.852,225.942 97.348,223.707 95.915,221.368 94.555,218.925 93.268,216.384 92.057,213.746 90.923,211.015 89.867,208.194 88.891,205.287 87.996,202.297 87.182,199.228 86.452,196.084 85.805,192.868 85.243,189.584 84.767,186.237 84.376,182.831 84.071,179.368 83.854,175.855 83.723,172.295 83.679,168.692 83.723,165.052 83.854,161.377 84.071,157.673 84.376,153.945 84.767,150.196 85.243,146.431 85.805,142.656 86.452,138.874 87.182,135.090 87.996,131.309 88.891,127.535 89.867,123.774 90.923,120.029 92.057,116.305 93.268,112.606 94.555,108.938 95.915,105.304 97.348,101.710 98.852,98.159 100.424,94.656 102.063,91.204 103.766,87.809 105.533,84.475 107.360,81.204 109.245,78.003 111.187,74.873 113.182,71.820 115.228,68.846 117.323,65.956 119.465,63.153 121.650,60.440 123.875,57.822 126.140,55.300 128.439,52.877 130.771,50.558 133.133,48.345 135.522,46.240 137.935,44.246 140.370,42.366 142.822,40.601 145.289,38.954 147.769,37.427 150.257,36.022 152.752,34.741 155.250,33.584 157.748,32.554 160.243,31.651 162.731,30.877 165.211,30.233 167.678,29.720 170.130,29.338 172.565,29.087 174.978,28.968 177.367,28.981 179.729,29.127 182.061,29.404 184.360,29.812 186.625,30.352 "/>
<g>
</g>
</g>
<g id="ID000015" clip-path="url(#ID000001)" >
      <polyline fill="none" stroke="#000000" stroke-width="0.3pt" stroke-dasharray="none" points="138.059,233.953 137.569,232.007 137.100,229.946 136.653,227.775 136.229,225.494 135.827,223.108 135.449,220.618 135.094,218.028 134.764,215.340 134.459,212.559 134.178,209.687 133.923,206.729 133.694,203.686 133.490,200.564 133.313,197.366 133.162,194.095 133.038,190.757 132.940,187.353 132.870,183.890 132.826,180.371 132.809,176.800 132.820,173.181 132.857,169.519 132.921,165.819 133.012,162.084 133.130,158.320 133.275,154.530 133.446,150.720 133.643,146.893 133.866,143.055 134.116,139.211 134.390,135.364 "/>
      <polyline fill="none" stroke="#000000" stroke-width="0.3pt" stroke-dasharray="none" points="155.250,33.584 156.033,32.286 156.815,31.115 157.596,30.075 158.373,29.164 159.147,28.386 159.916,27.741 160.679,27.229 161.436,26.851 162.185,26.608 162.925,26.500 "/>
<g>
</g>
</g>
<g id="ID000016" >
  <g transform="translate(134.370,163.028)">
    <g transform="rotate(-0.0)">
      <text x="0.000" y="0.000" font-family="Helvetica" text-anchor="start" font-size="10pt" fill="#000000" ><tspan>&#966;</tspan><tspan></tspan><tspan dy="4.0pt" font-size="7pt">1</tspan><tspan dy="-4.0pt" font-size="10pt"></tspan></text>
    </g>
  </g>
</g>
<g id="ID000017" clip-path="url(#ID000001)" >
      <polyline fill="none" stroke="#000000" stroke-width="0.3pt" stroke-dasharray="none" points="199.589,230.482 200.835,228.467 202.028,226.346 203.166,224.120 204.248,221.793 205.273,219.368 206.240,216.846 207.146,214.231 207.992,211.527 208.777,208.736 209.498,205.861 210.157,202.906 210.751,199.875 211.280,196.770 211.744,193.596 212.141,190.356 212.472,187.054 212.736,183.694 212.933,180.280 213.063,176.816 213.125,173.305 213.119,169.753 213.045,166.162 212.904,162.538 212.695,158.885 212.420,155.206 212.077,151.507 211.668,147.791 211.193,144.062 210.652,140.326 210.047,136.586 209.378,132.848 208.645,129.114 207.850,125.391 206.993,121.681 206.076,117.989 205.099,114.321 204.065,110.679 202.973,107.068 201.825,103.493 200.622,99.957 "/>
      <polyline fill="none" stroke="#000000" stroke-width="0.3pt" stroke-dasharray="none" points="155.250,33.584 153.230,32.444 151.212,31.431 149.200,30.548 147.195,29.795 145.199,29.173 143.216,28.683 141.247,28.325 139.296,28.100 137.364,28.008 135.454,28.049 133.568,28.224 131.708,28.531 "/>
<g>
</g>
</g>
<g id="ID000018" >
  <g transform="translate(212.239,142.639)">
    <g transform="rotate(-0.0)">
      <text x="0.000" y="0.000" font-family="Helvetica" text-anchor="start" font-size="10pt" fill="#000000" ><tspan>&#966;</tspan><tspan></tspan><tspan dy="4.0pt" font-size="7pt">2</tspan><tspan dy="-4.0pt" font-size="10pt"></tspan></text>
    </g>
  </g>
</g>
<g id="ID000019" >
  <g transform="translate(166.294,39.828)">
    <g transform="rotate(-0.0)">
      <text x="0.000" y="0.000" font-family="Helvetica" text-anchor="start" font-size="10pt" fill="#000000" >N</text>
    </g>
  </g>
</g>
<g id="ID000020" >
  <g transform="translate(161.644,48.871)">
    <g transform="rotate(-0.0)">
      <text x="0.000" y="0.000" font-family="Helvetica" text-anchor="middle" font-size="10pt" fill="#000000" ><tspan>&#955;</tspan><tspan></tspan><tspan dy="4.0pt" font-size="7pt">12</tspan><tspan dy="-4.0pt" font-size="10pt"></tspan></text>
    </g>
  </g>
</g>
<g id="ID000021" >
  <g transform="translate(86.004,151.080)">
    <g transform="rotate(-0.0)">
      <text x="0.000" y="0.000" font-family="Helvetica" text-anchor="start" font-size="10pt" fill="#000000" ><tspan>&#945;</tspan><tspan></tspan><tspan dy="4.0pt" font-size="7pt">0</tspan><tspan dy="-4.0pt" font-size="10pt"></tspan></text>
    </g>
  </g>
</g>
<g id="ID000022" >
  <g transform="translate(84.842,181.655)">
    <g transform="rotate(-0.0)">
      <text x="0.000" y="0.000" font-family="Helvetica" text-anchor="start" font-size="10pt" fill="#000000" >E</text>
    </g>
  </g>
</g>
<g id="ID000023" >
  <g transform="translate(133.972,189.336)">
    <g transform="rotate(-0.0)">
      <text x="0.000" y="0.000" font-family="Helvetica" text-anchor="start" font-size="10pt" fill="#000000" >F</text>
    </g>
  </g>
</g>
<g id="ID000024" >
  <g transform="translate(214.293,184.805)">
    <g transform="rotate(-0.0)">
      <text x="0.000" y="0.000" font-family="Helvetica" text-anchor="start" font-size="10pt" fill="#000000" >H</text>
    </g>
  </g>
</g>
<g id="ID000025" >
</g>
    </g>
  </g>
  </g>
</svg>
